<?xml version="1.0" encoding="UTF-8" standalone="no"?><!DOCTYPE svg PUBLIC "-//W3C//DTD SVG 1.1//EN" "http://www.w3.org/Graphics/SVG/1.1/DTD/svg11.dtd"><svg width="100%" height="100%" viewBox="0 0 218 42" version="1.1" xmlns="http://www.w3.org/2000/svg" xmlns:xlink="http://www.w3.org/1999/xlink" xml:space="preserve" xmlns:serif="http://www.serif.com/" style="fill-rule:evenodd;clip-rule:evenodd;stroke-linejoin:round;stroke-miterlimit:2;"><g id="logo"><path d="M19.266,0.912c-4.415,0 -8.028,3.613 -8.028,8.028c0,2.508 1.194,4.746 3.011,6.221c-2.771,1.688 -4.616,4.734 -4.616,8.228l3.211,0c0,-3.654 2.767,-6.422 6.422,-6.422c3.654,0 6.421,2.768 6.421,6.422l3.211,0c0,-3.494 -1.845,-6.54 -4.615,-8.228c1.816,-1.475 3.01,-3.713 3.01,-6.221c0,-4.415 -3.613,-8.028 -8.027,-8.028Zm0,3.211c2.679,0 4.816,2.138 4.816,4.817c0,2.679 -2.137,4.816 -4.816,4.816c-2.679,0 -4.817,-2.137 -4.817,-4.816c0,-2.679 2.138,-4.817 4.817,-4.817Zm14.449,9.633c-1.774,0 -3.211,1.438 -3.211,3.211c0,1.187 0.647,2.204 1.605,2.759l0,3.663l3.211,0l0,-3.663c0.959,-0.555 1.606,-1.572 1.606,-2.759c0,-1.773 -1.438,-3.211 -3.211,-3.211Zm-33.715,11.238l0,3.211l3.863,0l2.559,6.422l3.211,0l0,6.422l3.211,0l0,-6.422l12.843,0l0,6.422l3.211,0l0,-6.422l3.211,0l2.559,-6.422l3.863,0l0,-3.211l-38.531,0Zm7.074,3.211l24.383,0l-1.254,3.211l-2.91,0l-1.606,0l-14.449,0l-2.91,0l-1.254,-3.211Z" style="fill:#fc6054;fill-rule:nonzero;"/><g><path d="M69.314,23.402l-0.019,-8.092l-3.969,6.666l-1.406,0l-3.95,-6.492l0,7.918l-2.928,0l0,-13.486l2.582,0l5.047,8.38l4.971,-8.38l2.562,0l0.038,13.486l-2.928,0Z" style="fill:#fc6054;fill-rule:nonzero;"/><path d="M82.453,23.633c-1.4,0 -2.662,-0.302 -3.785,-0.906c-1.124,-0.603 -2.004,-1.435 -2.64,-2.494c-0.636,-1.06 -0.953,-2.251 -0.953,-3.574c0,-1.323 0.317,-2.514 0.953,-3.574c0.636,-1.06 1.516,-1.891 2.64,-2.495c1.123,-0.604 2.385,-0.905 3.785,-0.905c1.4,0 2.659,0.301 3.776,0.905c1.118,0.604 1.998,1.435 2.64,2.495c0.642,1.06 0.963,2.251 0.963,3.574c0,1.323 -0.321,2.514 -0.963,3.574c-0.642,1.059 -1.522,1.891 -2.64,2.494c-1.117,0.604 -2.376,0.906 -3.776,0.906Zm0,-2.659c0.797,0 1.516,-0.183 2.158,-0.549c0.642,-0.366 1.146,-0.876 1.512,-1.531c0.366,-0.655 0.549,-1.4 0.549,-2.235c0,-0.835 -0.183,-1.58 -0.549,-2.235c-0.366,-0.655 -0.87,-1.166 -1.512,-1.532c-0.642,-0.366 -1.361,-0.549 -2.158,-0.549c-0.796,0 -1.515,0.183 -2.157,0.549c-0.643,0.366 -1.147,0.877 -1.513,1.532c-0.366,0.655 -0.549,1.4 -0.549,2.235c0,0.835 0.183,1.58 0.549,2.235c0.366,0.655 0.87,1.165 1.513,1.531c0.642,0.366 1.361,0.549 2.157,0.549Z" style="fill:#fc6054;fill-rule:nonzero;"/><path d="M95.265,12.459l-4.316,0l0,-2.543l11.752,0l0,2.543l-4.315,0l0,10.943l-3.121,0l0,-10.943Z" style="fill:#fc6054;fill-rule:nonzero;"/><rect x="104.859" y="9.916" width="3.121" height="13.486" style="fill:#fc6054;fill-rule:nonzero;"/><path d="M124.549,9.916l-5.838,13.486l-3.082,0l-5.819,-13.486l3.372,0l4.104,9.633l4.161,-9.633l3.102,0Z" style="fill:#fc6054;fill-rule:nonzero;"/><path d="M134.586,20.512l-6.261,0l-1.195,2.89l-3.198,0l6.011,-13.486l3.083,0l6.03,13.486l-3.275,0l-1.195,-2.89Zm-0.983,-2.37l-2.138,-5.163l-2.138,5.163l4.276,0Z" style="fill:#fc6054;fill-rule:nonzero;"/><path d="M143.063,12.459l-4.316,0l0,-2.543l11.752,0l0,2.543l-4.315,0l0,10.943l-3.121,0l0,-10.943Z" style="fill:#fc6054;fill-rule:nonzero;"/><rect x="152.657" y="9.916" width="3.121" height="13.486" style="fill:#fc6054;fill-rule:nonzero;"/><path d="M165.989,23.633c-1.4,0 -2.662,-0.302 -3.786,-0.906c-1.124,-0.603 -2.003,-1.435 -2.639,-2.494c-0.636,-1.06 -0.954,-2.251 -0.954,-3.574c0,-1.323 0.318,-2.514 0.954,-3.574c0.636,-1.06 1.515,-1.891 2.639,-2.495c1.124,-0.604 2.386,-0.905 3.786,-0.905c1.4,0 2.659,0.301 3.776,0.905c1.117,0.604 1.997,1.435 2.639,2.495c0.643,1.06 0.964,2.251 0.964,3.574c0,1.323 -0.321,2.514 -0.964,3.574c-0.642,1.059 -1.522,1.891 -2.639,2.494c-1.117,0.604 -2.376,0.906 -3.776,0.906Zm0,-2.659c0.796,0 1.516,-0.183 2.158,-0.549c0.642,-0.366 1.146,-0.876 1.512,-1.531c0.366,-0.655 0.549,-1.4 0.549,-2.235c0,-0.835 -0.183,-1.58 -0.549,-2.235c-0.366,-0.655 -0.87,-1.166 -1.512,-1.532c-0.642,-0.366 -1.362,-0.549 -2.158,-0.549c-0.796,0 -1.516,0.183 -2.158,0.549c-0.642,0.366 -1.146,0.877 -1.512,1.532c-0.366,0.655 -0.549,1.4 -0.549,2.235c0,0.835 0.183,1.58 0.549,2.235c0.366,0.655 0.87,1.165 1.512,1.531c0.642,0.366 1.362,0.549 2.158,0.549Z" style="fill:#fc6054;fill-rule:nonzero;"/><path d="M188.568,9.916l0,13.486l-2.562,0l-6.724,-8.188l0,8.188l-3.082,0l0,-13.486l2.581,0l6.705,8.188l0,-8.188l3.082,0Z" style="fill:#fc6054;fill-rule:nonzero;"/><path d="M201.129,20.512l-6.261,0l-1.194,2.89l-3.198,0l6.01,-13.486l3.083,0l6.03,13.486l-3.275,0l-1.195,-2.89Zm-0.982,-2.37l-2.139,-5.163l-2.138,5.163l4.277,0Z" style="fill:#fc6054;fill-rule:nonzero;"/><path d="M207.487,9.916l3.121,0l0,10.943l6.762,0l0,2.543l-9.883,0l0,-13.486Z" style="fill:#fc6054;fill-rule:nonzero;"/></g><g><path d="M59.437,39.277c-0.693,0 -1.363,-0.099 -2.01,-0.296c-0.646,-0.197 -1.158,-0.458 -1.535,-0.783l0.578,-1.297c0.369,0.291 0.82,0.528 1.355,0.712c0.536,0.184 1.073,0.277 1.612,0.277c0.668,0 1.167,-0.108 1.497,-0.322c0.329,-0.214 0.494,-0.496 0.494,-0.847c0,-0.257 -0.092,-0.469 -0.276,-0.636c-0.184,-0.167 -0.417,-0.298 -0.7,-0.392c-0.283,-0.094 -0.668,-0.201 -1.156,-0.321c-0.685,-0.163 -1.239,-0.325 -1.663,-0.488c-0.424,-0.163 -0.788,-0.417 -1.092,-0.764c-0.304,-0.347 -0.456,-0.816 -0.456,-1.407c0,-0.496 0.135,-0.948 0.405,-1.355c0.269,-0.406 0.676,-0.729 1.22,-0.969c0.544,-0.24 1.209,-0.36 1.997,-0.36c0.548,0 1.087,0.069 1.618,0.206c0.531,0.137 0.989,0.334 1.375,0.59l-0.527,1.298c-0.394,-0.232 -0.805,-0.407 -1.233,-0.527c-0.428,-0.12 -0.843,-0.18 -1.246,-0.18c-0.659,0 -1.149,0.112 -1.47,0.334c-0.322,0.223 -0.482,0.518 -0.482,0.886c0,0.257 0.092,0.467 0.276,0.63c0.184,0.162 0.417,0.291 0.7,0.385c0.283,0.094 0.668,0.201 1.156,0.321c0.668,0.154 1.216,0.315 1.644,0.482c0.428,0.167 0.794,0.422 1.098,0.764c0.304,0.343 0.456,0.805 0.456,1.387c0,0.497 -0.135,0.946 -0.405,1.349c-0.269,0.402 -0.678,0.723 -1.226,0.963c-0.548,0.24 -1.216,0.36 -2.004,0.36Z" style="fill:#0e3b52;fill-rule:nonzero;"/><path d="M73.437,30.158c0.779,0 1.458,0.128 2.036,0.385c0.578,0.257 1.021,0.625 1.329,1.104c0.308,0.48 0.462,1.049 0.462,1.709c0,0.65 -0.154,1.218 -0.462,1.701c-0.308,0.484 -0.751,0.855 -1.329,1.111c-0.578,0.257 -1.257,0.386 -2.036,0.386l-2.029,0l0,2.594l-1.67,0l0,-8.99l3.699,0Zm-0.077,4.983c0.728,0 1.28,-0.154 1.657,-0.462c0.376,-0.309 0.565,-0.75 0.565,-1.323c0,-0.574 -0.189,-1.015 -0.565,-1.323c-0.377,-0.308 -0.929,-0.463 -1.657,-0.463l-1.952,0l0,3.571l1.952,0Z" style="fill:#0e3b52;fill-rule:nonzero;"/><path d="M90.686,37.748l0,1.4l-6.743,0l0,-8.99l6.563,0l0,1.4l-4.893,0l0,2.337l4.341,0l0,1.374l-4.341,0l0,2.479l5.073,0Z" style="fill:#0e3b52;fill-rule:nonzero;"/><path d="M103.389,37.068l-4.496,0l-0.886,2.08l-1.721,0l4.046,-8.99l1.644,0l4.058,8.99l-1.746,0l-0.899,-2.08Zm-0.553,-1.311l-1.695,-3.93l-1.683,3.93l3.378,0Z" style="fill:#0e3b52;fill-rule:nonzero;"/><path d="M115.282,35.385l-1.426,1.464l0,2.299l-1.669,0l0,-8.99l1.669,0l0,4.61l4.444,-4.61l1.875,0l-3.776,4.02l4.008,4.97l-1.953,0l-3.172,-3.763Z" style="fill:#0e3b52;fill-rule:nonzero;"/><path d="M133.302,37.748l0,1.4l-6.743,0l0,-8.99l6.563,0l0,1.4l-4.894,0l0,2.337l4.342,0l0,1.374l-4.342,0l0,2.479l5.074,0Z" style="fill:#0e3b52;fill-rule:nonzero;"/><path d="M146.056,39.148l-1.837,-2.633c-0.077,0.009 -0.193,0.013 -0.347,0.013l-2.029,0l0,2.62l-1.67,0l0,-8.99l3.699,0c0.779,0 1.458,0.128 2.036,0.385c0.578,0.257 1.021,0.625 1.329,1.104c0.308,0.48 0.463,1.049 0.463,1.709c0,0.676 -0.165,1.258 -0.495,1.746c-0.33,0.488 -0.803,0.852 -1.419,1.092l2.068,2.954l-1.798,0Zm-0.039,-5.792c0,-0.574 -0.188,-1.015 -0.565,-1.323c-0.377,-0.308 -0.929,-0.463 -1.657,-0.463l-1.952,0l0,3.584l1.952,0c0.728,0 1.28,-0.156 1.657,-0.469c0.377,-0.313 0.565,-0.756 0.565,-1.329Z" style="fill:#0e3b52;fill-rule:nonzero;"/><path d="M157.358,39.277c-0.694,0 -1.364,-0.099 -2.01,-0.296c-0.647,-0.197 -1.158,-0.458 -1.535,-0.783l0.578,-1.297c0.368,0.291 0.82,0.528 1.355,0.712c0.535,0.184 1.073,0.277 1.612,0.277c0.668,0 1.167,-0.108 1.496,-0.322c0.33,-0.214 0.495,-0.496 0.495,-0.847c0,-0.257 -0.092,-0.469 -0.276,-0.636c-0.184,-0.167 -0.418,-0.298 -0.7,-0.392c-0.283,-0.094 -0.668,-0.201 -1.156,-0.321c-0.685,-0.163 -1.24,-0.325 -1.664,-0.488c-0.423,-0.163 -0.787,-0.417 -1.091,-0.764c-0.304,-0.347 -0.456,-0.816 -0.456,-1.407c0,-0.496 0.135,-0.948 0.404,-1.355c0.27,-0.406 0.677,-0.729 1.221,-0.969c0.543,-0.24 1.209,-0.36 1.997,-0.36c0.548,0 1.087,0.069 1.618,0.206c0.531,0.137 0.989,0.334 1.374,0.59l-0.526,1.298c-0.394,-0.232 -0.805,-0.407 -1.233,-0.527c-0.428,-0.12 -0.844,-0.18 -1.246,-0.18c-0.659,0 -1.15,0.112 -1.471,0.334c-0.321,0.223 -0.481,0.518 -0.481,0.886c0,0.257 0.092,0.467 0.276,0.63c0.184,0.162 0.417,0.291 0.7,0.385c0.282,0.094 0.668,0.201 1.156,0.321c0.668,0.154 1.216,0.315 1.644,0.482c0.428,0.167 0.794,0.422 1.098,0.764c0.304,0.343 0.456,0.805 0.456,1.387c0,0.497 -0.135,0.946 -0.405,1.349c-0.27,0.402 -0.678,0.723 -1.226,0.963c-0.548,0.24 -1.216,0.36 -2.004,0.36Z" style="fill:#0e3b52;fill-rule:nonzero;"/><path d="M168.288,37.106c0.3,0 0.548,0.099 0.745,0.295c0.197,0.197 0.295,0.454 0.295,0.771c0,0.137 -0.019,0.281 -0.057,0.43c-0.039,0.15 -0.118,0.375 -0.238,0.675l-0.655,1.811l-1.04,0l0.513,-1.965c-0.188,-0.078 -0.336,-0.2 -0.443,-0.367c-0.107,-0.166 -0.16,-0.361 -0.16,-0.584c0,-0.317 0.098,-0.574 0.295,-0.771c0.197,-0.196 0.445,-0.295 0.745,-0.295Z" style="fill:#0e3b52;fill-rule:nonzero;"/><path d="M184.612,30.158l1.67,0l0,7.577l4.701,0l0,1.413l-6.371,0l0,-8.99Z" style="fill:#0e3b52;fill-rule:nonzero;"/><path d="M197.315,30.158l1.67,0l0,7.577l4.7,0l0,1.413l-6.37,0l0,-8.99Z" style="fill:#0e3b52;fill-rule:nonzero;"/><path d="M214.012,39.277c-0.908,0 -1.728,-0.199 -2.46,-0.598c-0.732,-0.398 -1.306,-0.948 -1.721,-1.65c-0.415,-0.702 -0.623,-1.494 -0.623,-2.376c0,-0.882 0.21,-1.674 0.63,-2.376c0.419,-0.702 0.995,-1.252 1.727,-1.651c0.732,-0.398 1.552,-0.597 2.46,-0.597c0.736,0 1.408,0.129 2.016,0.385c0.608,0.257 1.122,0.63 1.541,1.118l-1.079,1.015c-0.65,-0.703 -1.451,-1.054 -2.401,-1.054c-0.617,0 -1.169,0.135 -1.657,0.405c-0.488,0.27 -0.869,0.644 -1.143,1.124c-0.274,0.479 -0.411,1.023 -0.411,1.631c0,0.608 0.137,1.152 0.411,1.631c0.274,0.48 0.655,0.854 1.143,1.124c0.488,0.27 1.04,0.404 1.657,0.404c0.95,0 1.751,-0.355 2.401,-1.066l1.079,1.028c-0.419,0.488 -0.935,0.86 -1.547,1.117c-0.613,0.257 -1.287,0.386 -2.023,0.386Z" style="fill:#0e3b52;fill-rule:nonzero;"/></g></g></svg>